<svg width="14" height="14" viewBox="0 0 14 14" fill="none" xmlns="http://www.w3.org/2000/svg">
    <path fill-rule="evenodd" clip-rule="evenodd"
          d="M6.52846 1.03383C6.66431 0.93078 6.83014 0.875 7.00065 0.875C7.17116 0.875 7.33699 0.93078 7.47284 1.03383C7.60869 1.13688 7.7071 1.28154 7.75305 1.44575L7.75584 1.4557L7.75573 1.45572L8.64521 4.90729C8.67312 5.01548 8.72951 5.11422 8.80852 5.19322C8.88749 5.2722 8.98618 5.32858 9.09432 5.3565C9.09436 5.35651 9.09441 5.35652 9.09445 5.35653L12.546 6.24601L12.5542 6.24812L12.5542 6.24819C12.719 6.29366 12.8644 6.39197 12.968 6.52802C13.0716 6.66407 13.1277 6.83036 13.1277 7.00137C13.1277 7.17239 13.0716 7.33867 12.968 7.47473C12.8644 7.61078 12.719 7.70909 12.5542 7.75456L12.546 7.75681L12.546 7.75674L9.09445 8.64621C9.09441 8.64623 9.09436 8.64624 9.09432 8.64625C8.98618 8.67417 8.88749 8.73055 8.80852 8.80952C8.72951 8.88853 8.67312 8.98726 8.64521 9.09546L7.75515 12.5471L7.75259 12.557L7.75249 12.557C7.70654 12.7212 7.60813 12.8659 7.47228 12.9689C7.33643 13.072 7.1706 13.1277 7.00009 13.1277C6.82957 13.1277 6.66374 13.072 6.52789 12.9689C6.39205 12.8659 6.29364 12.7212 6.24768 12.557L6.2449 12.5471L6.245 12.547L5.35553 9.09546C5.35552 9.09541 5.35551 9.09537 5.3555 9.09533C5.32758 8.98719 5.2712 8.8885 5.19222 8.80952C5.11323 8.73053 5.01451 8.67414 4.90634 8.64623C4.90632 8.64622 4.90631 8.64622 4.90629 8.64621L1.45465 7.75616L1.44293 7.75314L1.44297 7.753C1.27942 7.70657 1.13546 7.60807 1.03296 7.47242C0.930459 7.33677 0.875 7.17139 0.875 7.00137C0.875 6.83136 0.930459 6.66598 1.03296 6.53033C1.13546 6.39468 1.27942 6.29618 1.44297 6.24975L1.45454 6.24647L1.45458 6.24661L4.90627 5.35598L4.90636 5.35595C5.01451 5.32807 5.11322 5.27172 5.19222 5.19278C5.27119 5.11386 5.32759 5.01524 5.35556 4.90717C5.35557 4.90712 5.35559 4.90707 5.3556 4.90703L6.24558 1.45565L6.24815 1.44572L6.24825 1.44575C6.2942 1.28155 6.39261 1.13688 6.52846 1.03383ZM7.00058 2.53263L7.67688 5.15697L7.67691 5.15709C7.74946 5.43832 7.89604 5.69496 8.10141 5.90033C8.30678 6.1057 8.56342 6.25228 8.84465 6.32483L8.84477 6.32486L11.4699 7.00137L8.84477 7.67788L8.84465 7.67792C8.56342 7.75047 8.30678 7.89705 8.10141 8.10242C7.89604 8.30778 7.74946 8.56443 7.67691 8.84566L7.6769 8.84571L7.00015 11.4701L6.32386 8.84578L6.32383 8.84566C6.25128 8.56443 6.10469 8.30778 5.89933 8.10242C5.69396 7.89705 5.43731 7.75047 5.15609 7.67792L5.15604 7.6779L2.53219 7.00131L5.15602 6.32429C5.15605 6.32428 5.15608 6.32427 5.15611 6.32426C5.4372 6.25177 5.69375 6.10532 5.89908 5.90013C6.10444 5.69491 6.25108 5.43843 6.32376 5.15736L6.32384 5.15704L7.00058 2.53263ZM11.5014 1.43776C11.7775 1.43776 12.0014 1.66162 12.0014 1.93776V2.56301H12.6266C12.9027 2.56301 13.1266 2.78687 13.1266 3.06301C13.1266 3.33915 12.9027 3.56301 12.6266 3.56301H12.0014V4.18826C12.0014 4.4644 11.7775 4.68826 11.5014 4.68826C11.2252 4.68826 11.0014 4.4644 11.0014 4.18826V3.56301H10.3761C10.1 3.56301 9.8761 3.33915 9.8761 3.06301C9.8761 2.78687 10.1 2.56301 10.3761 2.56301H11.0014V1.93776C11.0014 1.66162 11.2252 1.43776 11.5014 1.43776ZM2.49939 9.31449C2.77553 9.31449 2.99939 9.53835 2.99939 9.81449V9.87711H3.06201C3.33815 9.87711 3.56201 10.101 3.56201 10.3771C3.56201 10.6533 3.33815 10.8771 3.06201 10.8771H2.99939V10.9397C2.99939 11.2159 2.77553 11.4397 2.49939 11.4397C2.22325 11.4397 1.99939 11.2159 1.99939 10.9397V10.8771H1.93676C1.66062 10.8771 1.43676 10.6533 1.43676 10.3771C1.43676 10.101 1.66062 9.87711 1.93676 9.87711H1.99939V9.81449C1.99939 9.53835 2.22325 9.31449 2.49939 9.31449Z"
          fill="white" fill-opacity="0.7"/>
</svg>
