<svg width="14" height="14" viewBox="0 0 14 14" fill="none" xmlns="http://www.w3.org/2000/svg">
    <path fill-rule="evenodd" clip-rule="evenodd"
          d="M4.04688 3.20312L4.75398 3.91023L6.29289 5.44914L7 6.15625L7.70711 5.44914L9.24602 3.91023L9.95312 3.20312L9.24602 2.49602L7.70711 0.957107L7 0.25L6.29289 0.957107L4.75398 2.49602L4.04688 3.20312ZM8.53891 3.20312L7 4.74204L5.46109 3.20312L7 1.66421L8.53891 3.20312ZM4.04688 10.7969L4.75398 11.504L6.29289 13.0429L7 13.75L7.70711 13.0429L9.24602 11.504L9.95312 10.7969L9.24602 10.0898L7.70711 8.55086L7 7.84375L6.29289 8.55086L4.75398 10.0898L4.04688 10.7969ZM8.53891 10.7969L7 12.3358L5.46109 10.7969L7 9.25796L8.53891 10.7969ZM0.957107 7.70711L0.25 7L0.957107 6.29289L2.49602 4.75398L3.20312 4.04688L3.91023 4.75398L5.44914 6.29289L6.15625 7L5.44914 7.70711L3.91023 9.24602L3.20312 9.95312L2.49602 9.24602L0.957107 7.70711ZM3.20312 8.53891L4.74204 7L3.20312 5.46109L1.66421 7L3.20312 8.53891ZM7.84375 7L8.55086 7.70711L10.0898 9.24602L10.7969 9.95312L11.504 9.24602L13.0429 7.70711L13.75 7L13.0429 6.29289L11.504 4.75398L10.7969 4.04688L10.0898 4.75398L8.55086 6.29289L7.84375 7ZM12.3358 7L10.7969 8.53891L9.25796 7L10.7969 5.46109L12.3358 7Z"
          fill="white"/>
</svg>
